<svg width="135" height="135" viewBox="0 0 135 135" fill="none" xmlns="http://www.w3.org/2000/svg">
<path fill-rule="evenodd" clip-rule="evenodd" d="M67.3805 134.761C104.594 134.761 134.761 104.594 134.761 67.3805C134.761 30.1672 104.594 0 67.3805 0C30.1673 0 0 30.1672 0 67.3805C0 104.594 30.1673 134.761 67.3805 134.761ZM74.2634 94.7734V88.0002H76.743H97.2634C102.351 87.9574 105.001 85.2996 105.001 80.1553V40.9736C105.001 35.8295 102.351 33.1288 97.2634 33.1288H37.4549C32.4958 33.1288 29.7597 35.8295 29.7597 40.8022V80.4125C29.7597 85.2137 32.4958 87.9574 37.2839 88.0431H58.2318H60.4121V94.9448H53.8713V101.632H80.9326V94.7734H74.2634ZM36.7709 40.1163H98.1184V80.9698H36.7709V40.1163Z" fill="white"/>
</svg>
