<svg width="135" height="135" viewBox="0 0 135 135" fill="none" xmlns="http://www.w3.org/2000/svg">
<path fill-rule="evenodd" clip-rule="evenodd" d="M67.3805 134.761C104.594 134.761 134.761 104.594 134.761 67.3805C134.761 30.1672 104.594 0 67.3805 0C30.1673 0 0 30.1672 0 67.3805C0 104.594 30.1673 134.761 67.3805 134.761ZM33.6902 37.0593V97.3649H100.79V50.3669H67.1559V37.0593H33.6902ZM93.9958 57.3296V90.7391C85.0679 90.7391 76.3646 90.7391 67.4928 90.7953V84.1696H73.8378V77.4877H67.4367V70.6935H73.7817V63.8993H67.3805V57.3296H93.9958ZM40.4844 50.1985V43.7974H46.8856V50.1985H40.4844ZM60.3617 50.1985H53.8483V43.8535H60.3617V50.1985ZM46.8294 63.7308H40.4283V57.3296H46.8294V63.7308ZM60.3617 63.6185H53.8483V57.2734H60.3617V63.6185ZM40.4283 70.8058H46.9417V77.1508H40.4283V70.8058ZM53.9605 77.2069V70.6935H60.3055V77.2069H53.9605ZM46.8856 90.5707H40.3722V84.2819H46.8856V90.5707ZM60.3055 84.2819V90.7953H53.9605V84.2819H60.3055ZM87.3139 64.0116V70.4127H80.8566V64.0116H87.3139ZM87.3701 83.8888V77.6H80.8566V83.8888H87.3701Z" fill="white"/>
</svg>
