<svg width="135" height="135" viewBox="0 0 135 135" fill="none" xmlns="http://www.w3.org/2000/svg">
<path fill-rule="evenodd" clip-rule="evenodd" d="M67.3806 134.761C104.594 134.761 134.761 104.594 134.761 67.3805C134.761 30.1672 104.594 0 67.3806 0C30.1673 0 0 30.1672 0 67.3805C0 104.594 30.1673 134.761 67.3806 134.761ZM71.8925 31.4443H62.9141C62.3383 31.5848 61.7695 31.7253 61.2007 31.8658C60.6332 32.006 60.0656 32.1461 59.4911 32.2863C52.8976 33.7456 47.2019 36.8326 42.376 41.5474C37.1573 46.5989 33.7343 52.6327 32.2753 59.7329C30.6761 67.4506 31.3494 74.9436 34.6041 82.1561C38.1113 89.9017 43.6948 95.683 51.2141 99.5277C56.3206 102.138 61.7918 103.344 67.5436 103.316C75.6241 103.288 82.891 100.875 89.2601 95.9636C96.5831 90.3228 101.156 82.9419 102.812 73.793C102.887 73.3441 103.011 72.9202 103.136 72.4962C103.198 72.2841 103.261 72.0719 103.317 71.8566V62.8761C103.036 61.7255 102.756 60.6029 102.503 59.4523C101.044 52.8572 97.9298 47.1882 93.2442 42.3333C88.1097 37.0571 81.9651 33.6614 74.7824 32.1179C73.8004 31.9214 72.8464 31.6688 71.8925 31.4443ZM50.5969 51.0892C49.5307 55.7759 48.7731 60.6029 48.717 65.7106H34.52C34.8847 58.8629 37.1293 52.8572 41.1135 47.4689C44.2559 48.6757 47.3422 49.8544 50.5969 51.0892ZM93.665 47.4969C97.6773 52.7731 99.8938 58.8348 100.315 65.7106H86.1176C85.9773 60.7432 85.36 55.8601 84.1816 51.1453C87.3521 49.9386 90.4104 48.7599 93.665 47.4969ZM41.1415 87.2357C37.1293 81.9877 34.8847 75.9259 34.4919 68.994H48.6609C48.8292 73.9895 49.3904 78.8726 50.6249 83.5874C47.4545 84.7942 44.3962 85.9728 41.1415 87.2357ZM93.6931 87.2357C90.4946 86.0009 87.4083 84.8221 84.2939 83.6436C84.4345 82.8097 84.5895 81.965 84.746 81.1121C85.0267 79.5825 85.3123 78.0266 85.5284 76.4591C85.7598 74.6283 85.9124 72.7974 86.0689 70.9191C86.1211 70.2926 86.1737 69.6609 86.2299 69.0221H100.287C99.95 75.8698 97.6773 81.9036 93.6931 87.2357ZM65.6637 53.222C65.9163 54.2043 65.9724 64.1951 65.6637 65.7106C61.0903 65.7106 56.489 65.7106 51.7192 65.7386C51.8594 60.9678 52.4206 56.3091 53.6271 51.8469C56.0264 52.1099 58.3777 52.3826 60.7147 52.6536C62.3675 52.8452 64.0132 53.036 65.6637 53.222ZM75.0638 82.1859C73.0457 81.9539 71.0276 81.7217 69.0026 81.4825V69.2186C69.9846 68.8818 80.8428 68.7695 82.9471 69.0502C83.3961 71.2953 82.1054 80.7249 81.0953 82.8857C79.0801 82.6478 77.072 82.4169 75.0638 82.1859ZM81.1795 51.875C82.414 56.2529 82.9471 60.9116 83.1155 65.7386C78.3738 65.7386 73.7723 65.7386 69.0587 65.7667V53.2501C70.4006 53.0978 71.7491 52.9454 73.1072 52.7921C75.7529 52.4933 78.4356 52.1902 81.1795 51.875ZM53.6271 82.8577C52.3926 78.4797 51.8875 73.821 51.6911 68.994H65.7479V81.5106C61.7918 81.9316 57.8076 82.3806 53.6271 82.8577ZM69.199 49.9667C68.8903 48.788 68.8622 36.1871 69.1709 34.6718C70.658 35.0084 71.8364 35.7382 72.9025 36.6362C74.4177 37.8429 75.5961 39.3584 76.6342 40.958C78.2054 43.3435 79.3558 45.9254 80.2536 48.7599C76.55 49.4895 72.9025 49.9667 69.199 49.9667ZM65.6076 84.738C65.9163 85.9728 65.9443 98.6017 65.6357 100.061C64.1486 99.7242 62.9702 98.9945 61.876 98.1245C60.3608 96.9178 59.2386 95.3743 58.1443 93.8027C57.1343 92.3153 55.058 88.1338 54.6091 85.9728C58.2565 85.2151 61.9041 84.7942 65.6076 84.738ZM65.5515 34.6437C65.9163 35.7101 66.0284 47.5531 65.7198 49.9667C61.9321 49.9386 58.3127 49.5176 54.6652 48.7318C54.7213 48.395 54.6932 48.1705 54.7774 47.946C56.0681 44.3538 57.7515 40.9861 60.2767 38.1235C61.399 36.8607 62.6896 35.7943 64.2609 35.1207C64.6301 34.9485 65.0208 34.8192 65.3954 34.6954L65.5515 34.6437ZM69.2551 100.089C68.8903 99.0226 68.7501 87.2076 69.0867 84.7661C72.8745 84.7942 76.4939 85.2151 80.1133 85.9728C80.0572 86.3657 80.0572 86.6464 79.973 86.8989C78.7104 90.3508 77.1111 93.6062 74.6982 96.3846C73.5479 97.7317 72.2011 98.8823 70.5457 99.6119C70.1249 99.8083 69.676 99.9487 69.2551 100.089ZM43.3019 44.8871C47.4544 40.5652 52.1681 37.5342 57.8357 36.0188C54.8896 39.611 53.0378 43.7084 51.4947 48.0022C48.6609 47.2163 45.9954 46.3463 43.3019 44.8871ZM76.8306 36.103C80.2536 36.1591 88.278 40.9861 91.4205 44.9431C88.8111 46.3463 86.1737 47.3005 83.3119 48.0302C81.7687 43.7084 79.9169 39.5829 76.8306 36.103ZM57.8918 98.7139C52.1681 97.2266 47.5106 94.1395 43.2739 89.8457C45.9954 88.3864 48.6329 87.4602 51.5228 86.7025C53.0659 91.0243 54.9177 95.1498 57.8918 98.7139ZM83.2838 86.7587C86.1176 87.4321 88.755 88.4144 91.5607 89.8176C87.3241 94.1675 82.6385 97.2266 76.9428 98.7419C79.8608 95.1779 81.7687 91.1085 83.2838 86.7587Z" fill="white"/>
</svg>
